<svg width="24" height="43" viewBox="0 0 24 43" fill="none" xmlns="http://www.w3.org/2000/svg">
<mask id="path-1-inside-1" fill="white">
<path d="M13 1C13 0.447715 13.4477 0 14 0H18C18.5523 0 19 0.447715 19 1V10.5316C19 10.8284 18.8682 11.1099 18.6402 11.2998L14.6402 14.6332C13.9889 15.176 13 14.7128 13 13.865V1Z"/>
</mask>
<path d="M13 1C13 0.447715 13.4477 0 14 0H18C18.5523 0 19 0.447715 19 1V10.5316C19 10.8284 18.8682 11.1099 18.6402 11.2998L14.6402 14.6332C13.9889 15.176 13 14.7128 13 13.865V1Z" stroke="black" stroke-width="4" mask="url(#path-1-inside-1)"/>
<mask id="path-2-inside-2" fill="white">
<path d="M11 1C11 0.447715 10.5523 0 10 0H6C5.44772 0 5 0.447715 5 1V10.5316C5 10.8284 5.13182 11.1099 5.35982 11.2998L9.35982 14.6332C10.0111 15.176 11 14.7128 11 13.865V1Z"/>
</mask>
<path d="M11 1C11 0.447715 10.5523 0 10 0H6C5.44772 0 5 0.447715 5 1V10.5316C5 10.8284 5.13182 11.1099 5.35982 11.2998L9.35982 14.6332C10.0111 15.176 11 14.7128 11 13.865V1Z" stroke="black" stroke-width="4" mask="url(#path-2-inside-2)"/>
<mask id="path-3-inside-3" fill="white">
<path fill-rule="evenodd" clip-rule="evenodd" d="M10.3771 24.1891L8.5359 21L15.4641 21L13.6229 24.1891C13.102 24.0654 12.5587 24 12 24C11.4413 24 10.898 24.0654 10.3771 24.1891ZM8.49942 24.9368L5.93782 20.5C5.55292 19.8333 6.03405 19 6.80385 19H17.1962C17.966 19 18.4471 19.8333 18.0622 20.5L15.5006 24.9368C16.5628 25.5514 17.4486 26.4372 18.0632 27.4994L22.5 24.9378C23.1667 24.5529 24 25.034 24 25.8038V36.1962C24 36.966 23.1667 37.4471 22.5 37.0622L18.0632 34.5006C17.4486 35.5628 16.5628 36.4486 15.5006 37.0632L18.0622 41.5C18.4471 42.1667 17.966 43 17.1962 43H6.80385C6.03405 43 5.55292 42.1667 5.93782 41.5L8.49942 37.0632C7.43717 36.4486 6.55142 35.5628 5.93681 34.5006L1.5 37.0622C0.833333 37.4471 0 36.966 0 36.1962V25.8038C0 25.034 0.833334 24.5529 1.5 24.9378L5.93681 27.4994C6.55143 26.4372 7.43717 25.5514 8.49942 24.9368ZM5.18909 29.3771L2 27.5359L2 34.4641L5.18909 32.6229C5.06545 32.102 5 31.5587 5 31C5 30.4413 5.06545 29.898 5.18909 29.3771ZM10.3771 37.8109L8.5359 41H15.4641L13.6229 37.8109C13.102 37.9346 12.5587 38 12 38C11.4413 38 10.898 37.9346 10.3771 37.8109ZM18.8109 32.6229L22 34.4641V27.5359L18.8109 29.3771C18.9346 29.898 19 30.4413 19 31C19 31.5587 18.9346 32.102 18.8109 32.6229Z"/>
</mask>
<path fill-rule="evenodd" clip-rule="evenodd" d="M10.3771 24.1891L8.5359 21L15.4641 21L13.6229 24.1891C13.102 24.0654 12.5587 24 12 24C11.4413 24 10.898 24.0654 10.3771 24.1891ZM8.49942 24.9368L5.93782 20.5C5.55292 19.8333 6.03405 19 6.80385 19H17.1962C17.966 19 18.4471 19.8333 18.0622 20.5L15.5006 24.9368C16.5628 25.5514 17.4486 26.4372 18.0632 27.4994L22.5 24.9378C23.1667 24.5529 24 25.034 24 25.8038V36.1962C24 36.966 23.1667 37.4471 22.5 37.0622L18.0632 34.5006C17.4486 35.5628 16.5628 36.4486 15.5006 37.0632L18.0622 41.5C18.4471 42.1667 17.966 43 17.1962 43H6.80385C6.03405 43 5.55292 42.1667 5.93782 41.5L8.49942 37.0632C7.43717 36.4486 6.55142 35.5628 5.93681 34.5006L1.5 37.0622C0.833333 37.4471 0 36.966 0 36.1962V25.8038C0 25.034 0.833334 24.5529 1.5 24.9378L5.93681 27.4994C6.55143 26.4372 7.43717 25.5514 8.49942 24.9368ZM5.18909 29.3771L2 27.5359L2 34.4641L5.18909 32.6229C5.06545 32.102 5 31.5587 5 31C5 30.4413 5.06545 29.898 5.18909 29.3771ZM10.3771 37.8109L8.5359 41H15.4641L13.6229 37.8109C13.102 37.9346 12.5587 38 12 38C11.4413 38 10.898 37.9346 10.3771 37.8109ZM18.8109 32.6229L22 34.4641V27.5359L18.8109 29.3771C18.9346 29.898 19 30.4413 19 31C19 31.5587 18.9346 32.102 18.8109 32.6229Z" fill="white"/>
<path d="M8.5359 21V19L5.0718 19L6.80385 22L8.5359 21ZM10.3771 24.1891L8.64507 25.1891L9.38982 26.479L10.8391 26.135L10.3771 24.1891ZM15.4641 21L17.1962 22L18.9282 19L15.4641 19V21ZM13.6229 24.1891L13.1609 26.135L14.6102 26.479L15.3549 25.1891L13.6229 24.1891ZM5.93782 20.5L4.20577 21.5V21.5L5.93782 20.5ZM8.49942 24.9368L9.50104 26.6679L11.2305 25.6672L10.2315 23.9368L8.49942 24.9368ZM18.0622 20.5L16.3301 19.5L16.3301 19.5L18.0622 20.5ZM15.5006 24.9368L13.7685 23.9368L12.7695 25.6672L14.499 26.6679L15.5006 24.9368ZM18.0632 27.4994L16.3321 28.501L17.3328 30.2305L19.0632 29.2315L18.0632 27.4994ZM22.5 24.9378L23.5 26.6699V26.6699L22.5 24.9378ZM22.5 37.0622L23.5 35.3301H23.5L22.5 37.0622ZM18.0632 34.5006L19.0632 32.7685L17.3328 31.7695L16.3321 33.499L18.0632 34.5006ZM15.5006 37.0632L14.499 35.3321L12.7695 36.3328L13.7685 38.0632L15.5006 37.0632ZM18.0622 41.5L19.7942 40.5L19.7942 40.5L18.0622 41.5ZM5.93782 41.5L7.66987 42.5H7.66987L5.93782 41.5ZM8.49942 37.0632L10.2315 38.0632L11.2305 36.3328L9.50104 35.3321L8.49942 37.0632ZM5.93681 34.5006L7.66793 33.499L6.66725 31.7695L4.93681 32.7685L5.93681 34.5006ZM1.5 37.0622L0.5 35.3301H0.499997L1.5 37.0622ZM1.5 24.9378L2.5 23.2058H2.5L1.5 24.9378ZM5.93681 27.4994L4.93681 29.2315L6.66725 30.2305L7.66793 28.501L5.93681 27.4994ZM2 27.5359L3 25.8038L8.34465e-07 24.0718L7.15256e-07 27.5359H2ZM5.18909 29.3771L7.13501 29.8391L7.47904 28.3898L6.18909 27.6451L5.18909 29.3771ZM2 34.4641H4.76837e-07L3.57628e-07 37.9282L3 36.1962L2 34.4641ZM5.18909 32.6229L6.18909 34.3549L7.47904 33.6102L7.13501 32.1609L5.18909 32.6229ZM10.3771 37.8109L10.8391 35.865L9.38982 35.521L8.64507 36.8109L10.3771 37.8109ZM8.5359 41L6.80385 40L5.0718 43H8.5359V41ZM15.4641 41V43H18.9282L17.1962 40L15.4641 41ZM13.6229 37.8109L15.3549 36.8109L14.6102 35.521L13.1609 35.865L13.6229 37.8109ZM18.8109 32.6229L16.865 32.1609L16.521 33.6102L17.8109 34.3549L18.8109 32.6229ZM22 34.4641L21 36.1962L24 37.9282V34.4641H22ZM22 27.5359H24V24.0718L21 25.8038L22 27.5359ZM18.8109 29.3771L17.8109 27.6451L16.521 28.3898L16.865 29.8391L18.8109 29.3771ZM6.80385 22L8.64507 25.1891L12.1092 23.1891L10.2679 20L6.80385 22ZM15.4641 19L8.5359 19V23L15.4641 23V19ZM15.3549 25.1891L17.1962 22L13.7321 20L11.8908 23.1891L15.3549 25.1891ZM12 26C12.402 26 12.7903 26.047 13.1609 26.135L14.0848 22.2432C13.4137 22.0839 12.7154 22 12 22V26ZM10.8391 26.135C11.2097 26.047 11.598 26 12 26V22C11.2846 22 10.5863 22.0839 9.91518 22.2432L10.8391 26.135ZM4.20577 21.5L6.76737 25.9368L10.2315 23.9368L7.66987 19.5L4.20577 21.5ZM6.80385 17C4.49444 17 3.05107 19.5 4.20577 21.5L7.66987 19.5C8.05477 20.1667 7.57365 21 6.80385 21V17ZM17.1962 17H6.80385V21H17.1962V17ZM19.7942 21.5C20.9489 19.5 19.5055 17 17.1962 17V21C16.4264 21 15.9452 20.1667 16.3301 19.5L19.7942 21.5ZM17.2326 25.9368L19.7942 21.5L16.3301 19.5L13.7685 23.9368L17.2326 25.9368ZM14.499 26.6679C15.2584 27.1074 15.8926 27.7416 16.3321 28.501L19.7943 26.4978C19.0045 25.1328 17.8672 23.9955 16.5022 23.2057L14.499 26.6679ZM21.5 23.2058L17.0632 25.7674L19.0632 29.2315L23.5 26.6699L21.5 23.2058ZM26 25.8038C26 23.4944 23.5 22.0511 21.5 23.2058L23.5 26.6699C22.8333 27.0548 22 26.5737 22 25.8038H26ZM26 36.1962V25.8038H22V36.1962H26ZM21.5 38.7942C23.5 39.9489 26 38.5055 26 36.1962H22C22 35.4264 22.8333 34.9452 23.5 35.3301L21.5 38.7942ZM17.0632 36.2326L21.5 38.7942L23.5 35.3301L19.0632 32.7685L17.0632 36.2326ZM16.3321 33.499C15.8926 34.2584 15.2584 34.8926 14.499 35.3321L16.5022 38.7943C17.8672 38.0045 19.0045 36.8672 19.7943 35.5022L16.3321 33.499ZM19.7942 40.5L17.2326 36.0632L13.7685 38.0632L16.3301 42.5L19.7942 40.5ZM17.1962 45C19.5056 45 20.9489 42.5 19.7942 40.5L16.3301 42.5C15.9452 41.8333 16.4264 41 17.1962 41V45ZM6.80385 45H17.1962V41H6.80385V45ZM4.20577 40.5C3.05107 42.5 4.49444 45 6.80385 45V41C7.57365 41 8.05477 41.8333 7.66987 42.5L4.20577 40.5ZM6.76737 36.0632L4.20577 40.5L7.66987 42.5L10.2315 38.0632L6.76737 36.0632ZM9.50104 35.3321C8.74157 34.8926 8.10735 34.2584 7.66793 33.499L4.2057 35.5022C4.9955 36.8672 6.13278 38.0045 7.4978 38.7943L9.50104 35.3321ZM4.93681 32.7685L0.5 35.3301L2.5 38.7942L6.93681 36.2326L4.93681 32.7685ZM0.499997 35.3301C1.16667 34.9452 2 35.4264 2 36.1962H-2C-2 38.5055 0.499996 39.9489 2.5 38.7942L0.499997 35.3301ZM2 36.1962V25.8038H-2V36.1962H2ZM2 25.8038C2 26.5737 1.16666 27.0548 0.500001 26.6699L2.5 23.2058C0.500005 22.0511 -2 23.4944 -2 25.8038H2ZM0.500001 26.6699L4.93681 29.2315L6.93681 25.7674L2.5 23.2058L0.500001 26.6699ZM7.66793 28.501C8.10736 27.7416 8.74157 27.1074 9.50104 26.6679L7.4978 23.2057C6.13278 23.9955 4.9955 25.1328 4.2057 26.4978L7.66793 28.501ZM1 29.268L4.18909 31.1092L6.18909 27.6451L3 25.8038L1 29.268ZM4 34.4641V27.5359H7.15256e-07L4.76837e-07 34.4641H4ZM4.18909 30.8908L1 32.7321L3 36.1962L6.18909 34.3549L4.18909 30.8908ZM7.13501 32.1609C7.04703 31.7903 7 31.402 7 31H3C3 31.7154 3.08386 32.4137 3.24316 33.0848L7.13501 32.1609ZM7 31C7 30.598 7.04703 30.2097 7.13501 29.8391L3.24316 28.9152C3.08386 29.5863 3 30.2846 3 31H7ZM8.64507 36.8109L6.80385 40L10.268 42L12.1092 38.8109L8.64507 36.8109ZM8.5359 43H15.4641V39H8.5359V43ZM17.1962 40L15.3549 36.8109L11.8908 38.8109L13.7321 42L17.1962 40ZM13.1609 35.865C12.7903 35.953 12.402 36 12 36V40C12.7154 40 13.4137 39.9161 14.0848 39.7568L13.1609 35.865ZM12 36C11.598 36 11.2097 35.953 10.8391 35.865L9.91518 39.7568C10.5863 39.9161 11.2846 40 12 40V36ZM17.8109 34.3549L21 36.1962L23 32.7321L19.8109 30.8908L17.8109 34.3549ZM24 34.4641V27.5359H20V34.4641H24ZM21 25.8038L17.8109 27.6451L19.8109 31.1092L23 29.268L21 25.8038ZM16.865 29.8391C16.953 30.2097 17 30.598 17 31H21C21 30.2846 20.9161 29.5863 20.7568 28.9152L16.865 29.8391ZM17 31C17 31.402 16.953 31.7903 16.865 32.1609L20.7568 33.0848C20.9161 32.4137 21 31.7154 21 31H17Z" fill="black" mask="url(#path-3-inside-3)"/>
</svg>
