<svg width="24" height="25" viewBox="0 0 24 25" fill="none" xmlns="http://www.w3.org/2000/svg">
  <path class="back" fill-rule="evenodd" clip-rule="evenodd" d="M12.6577 22.7533L12 23.3276L11.3423 22.7533C5.81131 17.9237 3 13.7068 3 10C3 4.75066 7.09705 1 12 1C16.9029 1 21 4.75066 21 10C21 13.7068 18.1887 17.9237 12.6577 22.7533Z" fill="black"/>
  <path class="border" d="M12.6577 22.7533L12 22L12.6577 22.7533ZM12 23.3276L11.3423 24.0808L12 24.6551L12.6577 24.0808L12 23.3276ZM11.3423 22.7533L12 22L11.3423 22.7533ZM12 22L11.3423 22.5743L12.6577 24.0808L13.3155 23.5065L12 22ZM12.6577 22.5743L12 22L10.6845 23.5065L11.3423 24.0808L12.6577 22.5743ZM12 22C6.48718 17.1863 4 13.2306 4 10H2C2 14.1829 5.13544 18.6611 10.6845 23.5065L12 22ZM4 10C4 5.32805 7.6239 2 12 2V0C6.5702 0 2 4.17328 2 10H4ZM12 2C16.3761 2 20 5.32805 20 10H22C22 4.17328 17.4298 0 12 0V2ZM20 10C20 13.2306 17.5128 17.1863 12 22L13.3155 23.5065C18.8646 18.6611 22 14.1829 22 10H20Z" fill="black"/>
</svg>
