<svg width="392" height="120" viewBox="0 0 392 120" fill="none" xmlns="http://www.w3.org/2000/svg">
<g clip-path="url(#clip0)">
<path d="M0 0V120H120V0H0ZM91.33 96.69C91.0317 98.7924 89.9226 100.695 88.24 101.99C85.69 103.64 82.53 104.34 79.42 105.14C80.29 102.65 81.93 100.34 79.49 98.3C76.74 95.99 73.89 97.73 71.54 98.3C71.46 98.87 71.38 99.39 71.3 99.89L70.58 102.55C69.3344 104.873 67.3807 106.739 65.0025 107.877C62.6244 109.015 59.9456 109.365 57.3549 108.877C54.7643 108.388 52.3967 107.087 50.5958 105.162C48.7949 103.237 47.6544 100.787 47.34 98.17L47.87 98.24C45.02 96.94 42.21 96.91 40.79 98.24C38.64 100.33 39.41 102.48 40.87 104.59C38.903 104.758 36.9234 104.486 35.0745 103.794C33.2256 103.102 31.5537 102.008 30.18 100.59C27.74 97.73 28.18 92.68 31.18 89.73C34.83 86.2 40 85.42 44.07 88.4C46.43 90.09 48.22 92.59 50.19 94.8C50.9512 95.7557 51.6525 96.7576 52.29 97.8L53.01 97.39C52.2499 95.6589 51.3257 94.0047 50.25 92.45C46.54 88.02 42.48 83.88 38.83 79.45C32.55 71.73 33.35 63.5 37.76 55C36.96 69.13 45.76 79.23 52.5 90.17C51.68 88.32 50.82 86.49 50.03 84.62C46.79 76.99 43.03 69.52 40.46 61.62C35.93 47.98 42.59 36.01 53.63 28.62C53.14 29.9 52.86 30.62 52.56 31.4C47.05 45.18 46.34 59.09 51.32 73.2C52.94 77.79 54.42 82.45 55.59 87.2C56.34 90.2 56.4 93.44 56.79 96.56C56.85 97.11 56.98 97.64 57.08 98.19H57.75C57.75 95.86 58.07 93.47 57.68 91.19C56.68 85.33 55.99 79.32 54.07 73.74C50.4 63.06 50.58 52.52 53.21 41.74C53.9967 38.2313 54.5942 34.6828 55 31.11C56 23.6 53.78 17 49 11C49.84 11.34 50.7 11.63 51.5 12C59.56 16 63.89 22.94 65.93 31.33C66.8424 35.6485 67.4142 40.032 67.64 44.44C68.73 58.3 66.18 71.76 63.15 85.2C62.21 89.35 62.28 93.72 61.89 98L62.72 98.16C62.94 97.84 63.34 97.52 63.33 97.16C63 89.36 65.58 82.16 68.22 75.08C73.7346 60.7374 73.3754 44.7995 67.22 30.72C67.0043 30.1134 66.8207 29.4959 66.67 28.87C75.14 33.08 81.67 45.17 80.94 54.71C80.39 61.71 77.81 68.02 74.94 74.28C72.94 78.76 70.78 83.2 68.87 87.74C75.87 77.98 82.87 68.2 82 54.64C87.33 63.64 87.06 72.1 81.27 79.51C78.27 83.42 74.58 86.86 71.27 90.6C69.52 92.6 67.46 94.5 68 97.77C68.6 96.77 69.18 95.77 69.79 94.77C72.16 90.84 75.3 87.86 79.97 86.88C86 85.61 92 90.62 91.33 96.69Z" fill="black"/>
<path d="M153.63 73.4487H165L164.34 78.3288H147.55V49.7188H153.63V73.4487Z" fill="black"/>
<path d="M185 54.1383H174.68V61.5783H183.68V65.9983H174.68V73.8883H185.76V78.3583H168.6V49.7183H185.68L185 54.1383ZM182.76 43.7183L173.09 47.2383L171.6 44.2383L180.53 39.2383L182.76 43.7183Z" fill="black"/>
<path d="M211.2 52.4887L208 55.7987C206.369 54.3558 204.267 53.5591 202.09 53.5587C198.09 53.5587 194.82 56.5587 194.82 64.0187C194.82 71.6687 196.97 74.4387 201.18 74.4387C202.662 74.4694 204.127 74.1254 205.44 73.4387V66.4387H201.44L200.82 61.9987H211.36V76.0987C208.352 77.9541 204.894 78.9533 201.36 78.9887C192.92 78.9887 188.5 73.8187 188.5 63.9887C188.5 54.3187 194.5 49.0687 201.9 49.0687C205.319 49.0055 208.637 50.2258 211.2 52.4887Z" fill="black"/>
<path d="M222.5 78.3288H216.42V49.7188H222.5V78.3288Z" fill="black"/>
<path d="M252.56 64C252.56 73.39 247.73 79 239.87 79C232.01 79 227.14 73.58 227.14 64C227.14 54.66 232.01 49 239.87 49C247.73 49 252.56 54.43 252.56 64ZM233.56 64C233.56 71.49 235.92 74.42 239.89 74.42C243.86 74.42 246.17 71.49 246.17 64C246.17 56.51 244 53.6 239.87 53.6C235.74 53.6 233.54 56.54 233.54 64H233.56Z" fill="black"/>
<path d="M278.75 78.3288H270.93L261.84 55.6287C262.386 59.4647 262.664 63.3341 262.67 67.2087V78.3288H257.17V49.7188H264.82L274.08 72.4587C273.559 69.0931 273.282 65.6943 273.25 62.2887V49.7188H278.75V78.3288Z" fill="black"/>
<path d="M306.38 78.3288H298.57L289.47 55.6287C290.016 59.4647 290.294 63.3341 290.3 67.2087V78.3288H284.8V49.7188H292.45L301.71 72.4587C301.189 69.0931 300.912 65.6943 300.88 62.2887V49.7188H306.38V78.3288Z" fill="black"/>
<path d="M326 71.9187H317L315.39 78.3288H309L317.81 49.7188H325.21L334 78.3288H327.55L326 71.9187ZM324.84 67.4088L321.5 54.2188L318.1 67.4088H324.84Z" fill="black"/>
<path d="M342.75 78.3288H336.67V49.7188H342.75V78.3288Z" fill="black"/>
<path d="M358 67.1188H354.9V78.3288H348.82V49.7188H357.75C365.4 49.7188 369.29 52.4887 369.29 58.2787C369.29 62.0787 367.43 64.3488 363.62 66.0088L371 78.3288H364.1L358 67.1188ZM354.9 62.8288H358.08C361.27 62.8288 363 61.4987 363 58.2787C363 55.3387 361.31 54.0588 357.63 54.0588H354.9V62.8288Z" fill="black"/>
<path d="M390.64 54.1387H380.31V61.5788H389.31V65.9987H380.31V73.8887H391.39V78.3587H374.23V49.7188H391.31L390.64 54.1387Z" fill="black"/>
<path d="M164.17 95.4408C164.17 101.721 159.83 104.081 153.75 104.081H149.49V115.331H147.55V87.0508H153.87C160.36 87.0508 164.17 89.6108 164.17 95.4408ZM162.1 95.4408C162.1 90.4408 159.1 88.7008 153.87 88.7008H149.49V102.391H153.79C158.67 102.431 162.1 100.821 162.1 95.4808V95.4408Z" fill="black"/>
<path d="M179 102.391H172.9V115.331H171V87.0508H177.66C184.35 87.0508 187.46 89.7408 187.46 94.6108C187.46 98.9108 185.06 101.101 181.09 102.061L188.9 115.331H186.5L179 102.391ZM177.89 100.731C182.6 100.731 185.33 98.8708 185.33 94.6108C185.33 90.7708 183.18 88.7408 177.47 88.7408H172.9V100.741L177.89 100.731Z" fill="black"/>
<path d="M215.79 101.231C215.79 110.491 211.33 115.781 204.38 115.781C197.64 115.781 193.01 110.651 193.01 101.271C193.01 91.8906 197.68 86.6406 204.38 86.6406C211.08 86.6406 215.79 91.6806 215.79 101.231ZM195.08 101.231C195.08 109.791 198.88 114.001 204.38 114.001C210.17 114.001 213.72 109.791 213.72 101.191C213.72 92.5906 210.04 88.2906 204.38 88.2906C198.72 88.2906 195.08 92.5506 195.08 101.271V101.231Z" fill="black"/>
<path d="M225.94 111.611C225.94 116.321 224.45 118.061 219.82 120.001L219.28 118.551C223.04 116.821 223.95 115.331 223.95 111.481V87.0508H225.95L225.94 111.611Z" fill="black"/>
<path d="M249 88.7408H237.14V99.7408H247.36V101.431H237.14V113.631H249.46V115.331H235.2V87.0508H249.2L249 88.7408Z" fill="black"/>
<path d="M272.13 89.1597L271.06 90.4797C269.442 89.0537 267.347 88.2866 265.19 88.3297C260.02 88.3297 255.8 92.0097 255.8 101.19C255.8 109.91 259.89 114 265.06 114C267.399 114.044 269.665 113.189 271.39 111.61L272.46 112.93C270.435 114.821 267.75 115.844 264.98 115.78C258.53 115.78 253.73 110.7 253.73 101.19C253.73 91.4697 258.82 86.6397 265.06 86.6397C267.653 86.5444 270.183 87.4463 272.13 89.1597Z" fill="black"/>
<path d="M292.53 88.8308H284.09V115.331H282.15V88.8308H273.67V87.0508H292.77L292.53 88.8308Z" fill="black"/>
</g>
<defs>
<clipPath id="clip0">
<rect width="391.39" height="120" fill="white"/>
</clipPath>
</defs>
</svg>
