<svg width="434" height="120" viewBox="0 0 434 120" fill="none" xmlns="http://www.w3.org/2000/svg">
<g id="UPDATED SYMBOL">
<rect width="434" height="120" fill="white"/>
<path id="Vector" d="M0 0V120H120V0H0ZM91.33 96.69C91.0317 98.7924 89.9226 100.695 88.24 101.99C85.69 103.64 82.53 104.34 79.42 105.14C80.29 102.65 81.93 100.34 79.49 98.3C76.74 95.99 73.89 97.73 71.54 98.3C71.46 98.87 71.38 99.39 71.3 99.89L70.58 102.55C69.3344 104.873 67.3807 106.739 65.0025 107.877C62.6244 109.015 59.9456 109.365 57.3549 108.877C54.7643 108.388 52.3967 107.087 50.5958 105.162C48.7949 103.237 47.6544 100.787 47.34 98.17L47.87 98.24C45.02 96.94 42.21 96.91 40.79 98.24C38.64 100.33 39.41 102.48 40.87 104.59C38.903 104.758 36.9234 104.486 35.0745 103.794C33.2256 103.102 31.5537 102.008 30.18 100.59C27.74 97.73 28.18 92.68 31.18 89.73C34.83 86.2 40 85.42 44.07 88.4C46.43 90.09 48.22 92.59 50.19 94.8C50.9512 95.7557 51.6525 96.7576 52.29 97.8L53.01 97.39C52.2499 95.6589 51.3257 94.0047 50.25 92.45C46.54 88.02 42.48 83.88 38.83 79.45C32.55 71.73 33.35 63.5 37.76 55C36.96 69.13 45.76 79.23 52.5 90.17C51.68 88.32 50.82 86.49 50.03 84.62C46.79 76.99 43.03 69.52 40.46 61.62C35.93 47.98 42.59 36.01 53.63 28.62C53.14 29.9 52.86 30.62 52.56 31.4C47.05 45.18 46.34 59.09 51.32 73.2C52.94 77.79 54.42 82.45 55.59 87.2C56.34 90.2 56.4 93.44 56.79 96.56C56.85 97.11 56.98 97.64 57.08 98.19H57.75C57.75 95.86 58.07 93.47 57.68 91.19C56.68 85.33 55.99 79.32 54.07 73.74C50.4 63.06 50.58 52.52 53.21 41.74C53.9967 38.2313 54.5942 34.6828 55 31.11C56 23.6 53.78 17 49 11C49.84 11.34 50.7 11.63 51.5 12C59.56 16 63.89 22.94 65.93 31.33C66.8424 35.6485 67.4142 40.032 67.64 44.44C68.73 58.3 66.18 71.76 63.15 85.2C62.21 89.35 62.28 93.72 61.89 98L62.72 98.16C62.94 97.84 63.34 97.52 63.33 97.16C63 89.36 65.58 82.16 68.22 75.08C73.7346 60.7374 73.3754 44.7995 67.22 30.72C67.0043 30.1134 66.8207 29.4959 66.67 28.87C75.14 33.08 81.67 45.17 80.94 54.71C80.39 61.71 77.81 68.02 74.94 74.28C72.94 78.76 70.78 83.2 68.87 87.74C75.87 77.98 82.87 68.2 82 54.64C87.33 63.64 87.06 72.1 81.27 79.51C78.27 83.42 74.58 86.86 71.27 90.6C69.52 92.6 67.46 94.5 68 97.77C68.6 96.77 69.18 95.77 69.79 94.77C72.16 90.84 75.3 87.86 79.97 86.88C86 85.61 92 90.62 91.33 96.69Z" fill="black"/>
<g id="projet l&#195;&#169;gionnaires">
<path d="M155.108 38.484C158.687 38.484 161.429 39.232 163.336 40.728C165.272 42.1947 166.24 44.4533 166.24 47.504C166.24 50.7307 165.228 53.1067 163.204 54.632C161.209 56.128 158.467 56.876 154.976 56.876H150.664V68.624H148.024V38.484H155.108ZM154.976 54.72C157.704 54.72 159.801 54.1773 161.268 53.092C162.735 52.0067 163.468 50.1587 163.468 47.548C163.468 45.084 162.749 43.324 161.312 42.268C159.904 41.1827 157.821 40.64 155.064 40.64H150.664V54.72H154.976Z" fill="black"/>
<path d="M181.786 55.116H175.758V68.624H173.118V38.484H180.422C187.579 38.484 191.158 41.212 191.158 46.668C191.158 48.8387 190.586 50.5693 189.442 51.86C188.298 53.1507 186.626 54.0747 184.426 54.632L192.698 68.624H189.574L181.786 55.116ZM180.774 52.96C185.819 52.96 188.342 50.8627 188.342 46.668C188.342 44.6147 187.711 43.104 186.45 42.136C185.188 41.1387 183.15 40.64 180.334 40.64H175.758V52.96H180.774Z" fill="black"/>
<path d="M209.066 38C211.53 38 213.686 38.6013 215.534 39.804C217.382 40.9773 218.819 42.7373 219.846 45.084C220.873 47.4307 221.386 50.2613 221.386 53.576C221.386 56.832 220.873 59.6333 219.846 61.98C218.849 64.2973 217.426 66.072 215.578 67.304C213.73 68.5067 211.559 69.108 209.066 69.108C206.631 69.108 204.49 68.5067 202.642 67.304C200.794 66.1013 199.357 64.3413 198.33 62.024C197.303 59.7067 196.79 56.9053 196.79 53.62C196.79 50.364 197.303 47.5627 198.33 45.216C199.357 42.8693 200.794 41.08 202.642 39.848C204.519 38.616 206.661 38 209.066 38ZM209.066 40.244C206.133 40.244 203.815 41.3733 202.114 43.632C200.413 45.8613 199.562 49.1907 199.562 53.62C199.562 57.9907 200.413 61.2907 202.114 63.52C203.845 65.7493 206.162 66.864 209.066 66.864C212.087 66.864 214.434 65.764 216.106 63.564C217.778 61.3347 218.614 58.0053 218.614 53.576C218.614 49.1173 217.763 45.788 216.062 43.588C214.39 41.3587 212.058 40.244 209.066 40.244Z" fill="black"/>
<path d="M232.276 64.576C232.276 66.3653 232.041 67.8173 231.572 68.932C231.132 70.076 230.428 71.0147 229.46 71.748C228.492 72.4813 227.143 73.1853 225.412 73.86L224.708 71.924C226.057 71.3373 227.084 70.7213 227.788 70.076C228.492 69.46 228.976 68.7267 229.24 67.876C229.504 66.996 229.636 65.852 229.636 64.444V38.484H232.276V64.576Z" fill="black"/>
<path d="M257.137 38.484L256.829 40.684H244.465V51.904H255.157V54.104H244.465V66.424H257.445V68.624H241.825V38.484H257.137Z" fill="black"/>
<path d="M280.796 38.484L280.488 40.816H271.644V68.624H269.048V40.816H260.116V38.484H280.796Z" fill="black"/>
<path d="M153.216 88.132V112.904H165.096L164.348 118.624H146V88.132H153.216Z" fill="black"/>
<path d="M187.259 88.132L186.511 93.28H175.775V100.584H185.147V105.644H175.775V113.432H187.259V118.624H168.559V88.132H187.259ZM181.539 76.56L184.135 81.752L173.575 85.58L171.815 82.06L181.539 76.56Z" fill="black"/>
<path d="M204.317 87.384C208.248 87.384 211.636 88.6307 214.481 91.124L210.829 94.952C209.744 94.1307 208.732 93.544 207.793 93.192C206.884 92.8107 205.828 92.62 204.625 92.62C202.367 92.62 200.563 93.5147 199.213 95.304C197.864 97.064 197.189 99.748 197.189 103.356C197.189 107.257 197.703 110.029 198.729 111.672C199.756 113.285 201.355 114.092 203.525 114.092C205.051 114.092 206.429 113.755 207.661 113.08V106.172H203.701L202.997 101.068H214.657V116.16C213.073 117.187 211.328 117.979 209.421 118.536C207.515 119.093 205.608 119.372 203.701 119.372C199.067 119.372 195.576 118.023 193.229 115.324C190.883 112.596 189.709 108.607 189.709 103.356C189.709 100.012 190.34 97.1373 191.601 94.732C192.892 92.3267 194.637 90.508 196.837 89.276C199.067 88.0147 201.56 87.384 204.317 87.384Z" fill="black"/>
<path d="M226.693 88.132V118.624H219.477V88.132H226.693Z" fill="black"/>
<path d="M244.687 87.384C249.029 87.384 252.402 88.7773 254.807 91.564C257.242 94.3507 258.459 98.2813 258.459 103.356C258.459 106.671 257.902 109.531 256.787 111.936C255.702 114.341 254.118 116.189 252.035 117.48C249.982 118.741 247.533 119.372 244.687 119.372C241.842 119.372 239.393 118.741 237.339 117.48C235.286 116.219 233.702 114.4 232.587 112.024C231.502 109.619 230.959 106.729 230.959 103.356C230.959 100.071 231.502 97.2253 232.587 94.82C233.702 92.4147 235.286 90.5813 237.339 89.32C239.393 88.0293 241.842 87.384 244.687 87.384ZM244.687 92.664C242.605 92.664 241.05 93.5147 240.023 95.216C239.026 96.888 238.527 99.6013 238.527 103.356C238.527 107.111 239.041 109.839 240.067 111.54C241.094 113.241 242.634 114.092 244.687 114.092C246.799 114.092 248.354 113.256 249.351 111.584C250.378 109.883 250.891 107.14 250.891 103.356C250.891 99.572 250.378 96.844 249.351 95.172C248.325 93.5 246.77 92.664 244.687 92.664Z" fill="black"/>
<path d="M286.285 118.624H277.089L268.289 94.996C268.582 97.3133 268.802 99.3667 268.949 101.156C269.125 102.916 269.213 105.013 269.213 107.448V118.624H262.789V88.132H271.765L280.785 111.804C280.14 107.785 279.817 104.001 279.817 100.452V88.132H286.285V118.624Z" fill="black"/>
<path d="M315.461 118.624H306.265L297.465 94.996C297.758 97.3133 297.978 99.3667 298.125 101.156C298.301 102.916 298.389 105.013 298.389 107.448V118.624H291.965V88.132H300.941L309.961 111.804C309.316 107.785 308.993 104.001 308.993 100.452V88.132H315.461V118.624Z" fill="black"/>
<path d="M337.201 118.624L335.617 112.068H326.729L325.189 118.624H317.709L326.905 88.132H335.661L344.857 118.624H337.201ZM327.961 106.832H334.385L331.173 93.368L327.961 106.832Z" fill="black"/>
<path d="M354.31 88.132V118.624H347.094V88.132H354.31Z" fill="black"/>
<path d="M370.016 106.964H367.2V118.624H359.984V88.132H369.972C374.138 88.132 377.262 88.8947 379.344 90.42C381.456 91.9453 382.512 94.2773 382.512 97.416C382.512 99.3813 382.043 101.024 381.104 102.344C380.166 103.635 378.684 104.735 376.66 105.644L384.404 118.624H376.264L370.016 106.964ZM367.2 101.992H370.236C371.85 101.992 373.052 101.625 373.844 100.892C374.666 100.159 375.076 99 375.076 97.416C375.076 95.9493 374.636 94.8787 373.756 94.204C372.906 93.5293 371.586 93.192 369.796 93.192H367.2V101.992Z" fill="black"/>
<path d="M405.841 88.132L405.093 93.28H394.357V100.584H403.729V105.644H394.357V113.432H405.841V118.624H387.141V88.132H405.841Z" fill="black"/>
<path d="M419.683 87.384C421.971 87.384 423.951 87.7067 425.623 88.352C427.324 88.9973 428.864 89.98 430.243 91.3L426.899 95.216C424.816 93.5147 422.587 92.664 420.211 92.664C418.95 92.664 417.952 92.928 417.219 93.456C416.486 93.9547 416.119 94.688 416.119 95.656C416.119 96.3307 416.28 96.888 416.603 97.328C416.926 97.7387 417.498 98.1347 418.319 98.516C419.14 98.8973 420.372 99.352 422.015 99.88C425.124 100.877 427.412 102.109 428.879 103.576C430.346 105.013 431.079 107.067 431.079 109.736C431.079 111.643 430.595 113.329 429.627 114.796C428.659 116.233 427.266 117.363 425.447 118.184C423.628 118.976 421.472 119.372 418.979 119.372C416.486 119.372 414.271 118.976 412.335 118.184C410.428 117.392 408.786 116.336 407.407 115.016L411.059 111.012C412.232 112.009 413.435 112.757 414.667 113.256C415.928 113.755 417.292 114.004 418.759 114.004C420.255 114.004 421.428 113.681 422.279 113.036C423.159 112.361 423.599 111.437 423.599 110.264C423.599 109.501 423.438 108.871 423.115 108.372C422.792 107.844 422.235 107.375 421.443 106.964C420.651 106.553 419.507 106.113 418.011 105.644C414.638 104.617 412.232 103.356 410.795 101.86C409.387 100.364 408.683 98.472 408.683 96.184C408.683 94.424 409.152 92.884 410.091 91.564C411.03 90.2147 412.335 89.188 414.007 88.484C415.679 87.7507 417.571 87.384 419.683 87.384Z" fill="black"/>
</g>
</g>
</svg>
